<svg width="74" height="16" viewBox="0 0 74 16" fill="none" xmlns="http://www.w3.org/2000/svg">
<path d="M24.408 10.4674C24.408 13.2514 26.3941 15.4387 29.5353 15.4387H32.432V12.8038H29.7947C28.1091 12.8038 27.178 11.7923 27.178 10.4674C27.178 9.14251 28.1091 8.13094 29.7947 8.13094H32.432V5.49609H29.5353C26.3971 5.49609 24.408 7.68335 24.408 10.4674Z" fill="#D00F31"/>
<path d="M56.1877 5.37109C55.1269 5.37109 54.1368 5.58892 52.855 6.46323C51.5731 5.58892 50.583 5.37109 49.5222 5.37109C47.1619 5.37109 45.5117 7.01526 45.5117 9.38454V15.439H48.2816V9.52478C48.2816 8.51322 48.8916 8.00893 49.8905 8.00893C50.9484 8.00893 51.47 8.54306 51.47 9.39946V15.442H54.237V9.39647C54.237 8.54007 54.7585 8.00594 55.8164 8.00594C56.8153 8.00594 57.4253 8.51023 57.4253 9.5218V15.436H60.1952V9.38454C60.1952 7.01526 58.5451 5.37109 56.1848 5.37109H56.1877Z" fill="#D00F31"/>
<path d="M66.8559 5.37109C63.5645 5.37109 61.7051 7.97014 61.7051 10.4677C61.7051 12.9653 63.5645 15.5614 66.8559 15.5614C70.1474 15.5614 72.0009 12.9593 72.0009 10.4677C72.0009 7.9761 70.1415 5.37109 66.8559 5.37109V5.37109ZM66.853 12.9265C65.3089 12.9265 64.475 11.7091 64.475 10.4677C64.475 9.22639 65.3089 8.00893 66.853 8.00893C68.3971 8.00893 69.231 9.22639 69.231 10.4677C69.231 11.7091 68.3941 12.9265 66.853 12.9265Z" fill="#D00F31"/>
<path d="M8.49058 1V5.99816C7.82167 5.60427 7.02016 5.37152 6.089 5.37152C2.76804 5.37152 1 7.99145 1 10.4711C1 12.9508 2.76804 15.5648 6.089 15.5648C8.58487 15.5648 9.51898 14.3443 11.2605 13.5357V1H8.49058ZM3.76992 10.4681C3.76992 9.22682 4.60385 8.00935 6.14793 8.00935C7.69201 8.00935 8.49942 9.17609 8.52594 10.4055V10.5338C8.49942 11.7632 7.69201 12.9299 6.14793 12.9299C4.60385 12.9299 3.76992 11.7125 3.76992 10.4711V10.4681Z" fill="#D00F31"/>
<path d="M19.4812 1V1.68035H18.5029V4.15108H17.7869V1.68035H16.8145V1H19.4812Z" fill="#D00F31"/>
<path d="M22.6775 1V1.68035H21.7051V4.15108H20.9861V1.68035H20.0137V1H22.6805H22.6775Z" fill="#D00F31"/>
<path d="M14.1029 1L15.5174 3.02015V1H16.2069V4.15108H15.4525L14.047 2.13689V4.15108H13.3574V1H14.1059H14.1029Z" fill="#D00F31"/>
<path d="M17.977 5.37109C14.6856 5.37109 12.8262 7.97014 12.8262 10.4677C12.8262 12.9653 14.6885 15.5614 17.977 15.5614C21.2656 15.5614 23.125 12.9593 23.125 10.4677C23.125 7.9761 21.2626 5.37109 17.977 5.37109V5.37109ZM17.9741 12.9265C16.43 12.9265 15.5961 11.7091 15.5961 10.4677C15.5961 9.22639 16.43 8.00893 17.9741 8.00893C19.5182 8.00893 20.3521 9.22639 20.3521 10.4677C20.3521 11.7091 19.5152 12.9265 17.9741 12.9265Z" fill="#D00F31"/>
<path d="M38.8648 5.37109C35.5733 5.37109 33.7109 7.97014 33.7109 10.4677C33.7109 12.9653 35.5733 15.5614 38.8648 15.5614C42.1563 15.5614 44.0097 12.9593 44.0097 10.4677C44.0097 7.9761 42.1504 5.37109 38.8648 5.37109V5.37109ZM38.8618 12.9265C37.3207 12.9265 36.4838 11.7091 36.4838 10.4677C36.4838 9.22639 37.3207 8.00893 38.8618 8.00893C40.403 8.00893 41.2398 9.22639 41.2398 10.4677C41.2398 11.7091 40.403 12.9265 38.8618 12.9265Z" fill="#D00F31"/>
</svg>
