<svg width="200" height="58" viewBox="0 0 200 58" fill="none" xmlns="http://www.w3.org/2000/svg">
<path d="M33.3494 21.407C33.3494 23.578 31.9457 25.3451 30.2032 25.3451C28.4607 25.3451 27.057 23.578 27.057 21.407C27.057 19.236 30.2032 7.67419 30.2032 7.67419C30.2032 7.67419 33.3494 19.236 33.3494 21.407Z" fill="#00A8EA"/>
<path d="M30.2031 3.63516C31.1654 3.63516 31.9456 2.8214 31.9456 1.81758C31.9456 0.813758 31.1654 0 30.2031 0C29.2407 0 28.4606 0.813758 28.4606 1.81758C28.4606 2.8214 29.2407 3.63516 30.2031 3.63516Z" fill="#00A8EA"/>
<path d="M15.2468 54.8303H16.6989V57.2537H15.2468C13.8431 57.2537 12.5362 56.0925 12.0522 54.7293L10.9874 51.5991H13.8431C14.2303 51.5991 14.4724 51.1951 14.4724 50.7912C14.4724 50.3873 14.2303 49.9834 13.8431 49.9834H10.3581V57.2033H8.03479V47.6105H13.8431C15.5372 47.6105 16.7957 49.1251 16.7957 50.8417C16.7957 52.4069 15.7308 53.8205 14.2303 54.0225C14.4724 54.4769 14.7144 54.8303 15.2468 54.8303Z" fill="#00A8EA"/>
<path d="M22.9914 47.6105V57.2537H20.6681V47.6105H22.9914Z" fill="#00A8EA"/>
<path d="M35.6248 51.4978C35.6248 53.5173 34.1727 55.2844 32.1398 55.2844H29.284V57.304H27.0091V47.7112H32.1398C34.1243 47.7112 35.6248 49.4783 35.6248 51.4978ZM33.3014 51.4978C33.3014 50.8415 32.8174 50.1346 32.1398 50.1346H29.284V52.9115H32.1398C32.8658 52.861 33.3014 52.1542 33.3014 51.4978Z" fill="#00A8EA"/>
<path d="M45.6924 47.6105V49.9834H43.6111V57.2537H41.3361V50.0339H39.2548V47.661H45.6924V47.6105Z" fill="#00A8EA"/>
<path d="M58.0352 47.6105L56.0507 51.5486C55.5667 52.5078 55.0827 53.4671 54.5503 54.3759L54.4534 54.4769L54.1146 55.1332C53.4854 56.345 52.0333 57.2537 50.678 57.2537H49.3712V54.8303H50.678C51.1137 54.8303 51.6945 54.4769 51.9849 54.1235L49.2744 47.6105H51.7913L53.3886 51.4476C54.0662 50.1854 54.6955 48.8727 55.3731 47.6105H58.0352Z" fill="#00A8EA"/>
<path d="M39.8838 24.5878C50.3872 25.749 57.7929 28.6773 57.7929 32.06C57.7929 36.503 45.3534 40.0877 30.0097 40.0877C14.666 40.0877 2.22653 36.503 2.22653 32.06C2.22653 30.192 4.45305 28.4754 8.18006 27.1122C3.09777 28.7278 0 30.8988 0 33.2718C0 38.3206 13.8432 42.3597 30.8809 42.3597C47.9187 42.3597 61.7619 38.2701 61.7619 33.2718C61.8103 29.1822 52.5654 25.6985 39.8838 24.5878Z" fill="#00A8EA"/>
<path d="M38.0927 25.0927C46.4664 25.9005 52.4683 27.92 52.4683 30.3434C52.4683 33.4232 42.4974 35.9476 30.2515 35.9476C18.0056 35.9476 8.03462 33.4232 8.03462 30.3434C8.03462 29.0307 9.82552 27.819 12.7781 26.8597C8.71225 28.021 6.19531 29.5356 6.19531 31.2017C6.19531 34.7359 17.2795 37.5633 30.9291 37.5633C44.5787 37.5633 55.6629 34.6854 55.6629 31.2017C55.6145 28.3239 48.2573 25.9005 38.0927 25.0927Z" fill="#00A8EA"/>
<path d="M122.41 41.4004C122.41 43.5714 121.006 45.3385 119.264 45.3385C117.521 45.3385 116.118 43.5714 116.118 41.4004C116.118 39.2294 119.264 27.6676 119.264 27.6676C119.264 27.6676 122.41 39.2294 122.41 41.4004Z" fill="#00A8EA"/>
<path d="M119.264 23.6285C120.227 23.6285 121.007 22.8147 121.007 21.8109C121.007 20.8071 120.227 19.9933 119.264 19.9933C118.302 19.9933 117.522 20.8071 117.522 21.8109C117.522 22.8147 118.302 23.6285 119.264 23.6285Z" fill="#00A8EA"/>
<path d="M104.453 40.239H107.648V45.5403H104.453C101.404 45.5403 98.4999 43.0158 97.5318 40.0875L95.2085 33.2211H101.501C102.372 33.2211 102.905 32.3123 102.905 31.5045C102.905 30.6967 102.372 29.7879 101.501 29.7879H93.8532V45.5403H88.7709V24.4866H101.501C105.179 24.4866 107.938 27.7684 107.938 31.5045C107.938 34.8872 105.663 37.967 102.372 38.4214C102.759 39.4312 103.292 40.239 104.453 40.239Z" fill="#00A8EA"/>
<path d="M151.065 32.9182C151.065 37.3107 147.822 41.1478 143.514 41.1478H137.319V45.5908H132.333V24.6381H143.514C147.87 24.6381 151.065 28.5257 151.065 32.9182ZM146.079 32.9182C146.079 31.454 145.063 29.8889 143.514 29.8889H137.319V35.897H143.514C145.063 35.897 146.079 34.3824 146.079 32.9182Z" fill="#00A8EA"/>
<path d="M173.137 24.4866V29.6869H168.587V45.5403H163.601V29.6869H159.051V24.4866H173.137Z" fill="#00A8EA"/>
<path d="M200 24.4363L195.644 33.0194C194.579 35.0894 193.563 37.2099 192.401 39.2294L192.256 39.4819L191.481 40.8955C190.078 43.5209 186.883 45.49 184.027 45.49H181.172V40.2392H184.027C184.995 40.2392 186.254 39.4819 186.883 38.674L180.978 24.4363H186.496L189.981 32.8679C191.481 30.091 192.885 27.2637 194.289 24.4363H200Z" fill="#00A8EA"/>
</svg>
